<svg xmlns="http://www.w3.org/2000/svg" width="99.53" height="30" viewBox="0 0 99.53 30">
  <g id="Group_5" data-name="Group 5" transform="translate(-140 -35)">
    <text id="RAID" transform="translate(140 60)" fill="#fff" font-size="25" font-family="Tahoma-Bold, Tahoma" font-weight="700"><tspan x="0" y="0">RAID</tspan></text>
    <path id="Path_31" data-name="Path 31" d="M-33.47-18.523l9.559-.609s10.014.683,17.534,6.21A37.652,37.652,0,0,1,.256-6.411,61.391,61.391,0,0,1,6.53,2.978H-4.307S-6.88-6.009-11.431-11.156A22.25,22.25,0,0,0-22.511-17.61h-2.009s1.63.694,3.9,1.927h3.361l1.492.836s-3.164-.017-3.034.066a26.725,26.725,0,0,1,5.022,4.129h2.91l1.181,1.744s-1.661-.011-2.291.036-.224,0-.224,0A20.834,20.834,0,0,1-9.692-3.9l.032.059h3.008L-6.025-2.1h-3.1v-.033a28.3,28.3,0,0,1,.98,5.11H-19.275s.739-9.367-2.81-14.743S-33.47-18.523-33.47-18.523Z" transform="translate(233 58)" fill="#fff"/>
    <text id="RAID-2" data-name="RAID" transform="translate(140 60)" fill="#fff" font-size="25" font-family="Tahoma-Bold, Tahoma" font-weight="700"><tspan x="0" y="0">RAID</tspan></text>
  </g>
</svg>
